<?xml version="1.0" encoding="utf-8"?>
<!-- Generator: Adobe Illustrator 26.3.1, SVG Export Plug-In . SVG Version: 6.00 Build 0)  -->
<svg version="1.1" xmlns="http://www.w3.org/2000/svg" xmlns:xlink="http://www.w3.org/1999/xlink" x="0px" y="0px"
	 viewBox="0 0 216.01 201.05" style="enable-background:new 0 0 216.01 201.05;" xml:space="preserve">
<style type="text/css">
	.st0{fill:#0071BC;}
	.st1{display:none;}
	.st2{display:inline;}
</style>
<g id="Lager_1">
	<g>
		<path class="st0" d="M77.69,82.52c-2.5,3.6-5.28,8.16-8.35,13.68c-3.07,5.52-5.52,10.15-7.34,13.9l-2.74,5.62
			c-4.94,10.27-7.42,17.64-7.42,22.1c0,0.1,0.01,0.29,0.04,0.58c0.02,0.29,0.04,0.53,0.04,0.72c0,0.77-0.22,1.15-0.65,1.15
			c-0.82,0-1.7-0.71-2.66-2.12c-0.96-1.42-1.44-3.3-1.44-5.65c0-2.16,0.52-4.8,1.55-7.92c1.03-3.12,2.56-6.68,4.57-10.69
			c2.02-4.01,3.71-7.24,5.08-9.68c1.37-2.45,3.18-5.64,5.44-9.58c0.14-0.29,0.22-0.5,0.22-0.65c-0.1-0.24-0.22-0.36-0.36-0.36
			c-0.29,0-0.58,0.12-0.87,0.36c-2.83,2.3-6.55,6.22-11.16,11.74c-4.61,5.52-8.49,10.46-11.66,14.83l-4.82,6.55
			c-0.77,1.15-1.39,1.73-1.87,1.73c-0.14,0-0.26-0.05-0.36-0.14c-0.1-0.1-0.17-0.23-0.22-0.4c-0.05-0.17-0.08-0.32-0.11-0.47
			c-0.03-0.14-0.04-0.26-0.04-0.36v-0.14c0.33-2.98,0.83-7.13,1.47-12.46c0.65-5.33,1.19-9.82,1.62-13.46
			c0.43-3.65,0.65-5.52,0.65-5.62c0-0.48-0.1-0.72-0.29-0.72c-0.1,0-0.23,0.07-0.4,0.22s-0.3,0.29-0.4,0.43l-0.14,0.22
			c-2.06,3.07-4.27,7.04-6.62,11.92c-2.35,4.87-4.25,9.18-5.69,12.92c-1.06,2.69-2.14,5.15-3.24,7.38c-1.1,2.23-2.08,3.96-2.92,5.18
			c-0.84,1.22-1.61,2.26-2.3,3.1c-0.7,0.84-1.24,1.4-1.62,1.69l-0.58,0.43c-0.53,0.43-0.94,0.65-1.22,0.65s-0.43-0.24-0.43-0.72
			l0.07-0.65c0.48-2.54,2.58-7.39,6.3-14.54c3.72-7.15,7.33-13.68,10.84-19.58l5.26-8.78l3.96-6.84c1.97-5.62,3.48-8.42,4.54-8.42
			c0.72,0,1.08,1.22,1.08,3.67c-1.49,17.86-2.23,28.06-2.23,30.6c0,0.72,0.14,1.08,0.43,1.08c0.29,0,0.62-0.26,1.01-0.79
			c0.62-0.82,1.49-1.92,2.59-3.31c1.1-1.39,3.22-3.89,6.34-7.49c3.12-3.6,6.06-6.84,8.82-9.72c2.76-2.88,5.77-5.64,9.04-8.28
			c3.26-2.64,5.95-4.25,8.06-4.82c0.48-0.1,0.79-0.14,0.94-0.14c0.58,0,0.86,0.22,0.86,0.65C78.34,81.46,78.13,81.94,77.69,82.52z"
			/>
		<path class="st0" d="M74.89,123.92l2.23-3.82c0-0.14-0.05-0.22-0.14-0.22c-0.1,0-0.22,0.07-0.36,0.22
			c-1.78,2.06-3.62,4.07-5.54,6.01c-1.92,1.94-3.38,3.37-4.39,4.28l-1.58,1.37c-3.74,3.55-6.34,5.33-7.78,5.33
			c-0.67,0-1.01-0.43-1.01-1.3c0-0.96,0.4-2.42,1.19-4.39c0.79-1.97,1.6-3.72,2.41-5.26l1.15-2.23c4.03-7.54,7.01-12.58,8.93-15.12
			c0.96-1.25,2.14-2.29,3.53-3.13c1.39-0.84,2.47-1.26,3.24-1.26c0.48,0,0.72,0.17,0.72,0.5c0,0.19-0.1,0.46-0.29,0.79
			c-0.1,0.19-1.08,1.79-2.95,4.79c-1.87,3-3.38,5.58-4.54,7.74c-3.17,5.81-4.75,9.14-4.75,10.01c0,0.34,0.14,0.5,0.43,0.5
			c0.43,0,1.18-0.43,2.23-1.3c3.12-2.69,6.55-6.31,10.3-10.87c2.06-2.21,4.22-5.09,6.48-8.64c1.54-2.35,3.58-3.53,6.12-3.53
			c0.43,0,0.65,0.19,0.65,0.58l-0.58,1.37c-0.67,1.2-2.17,3.83-4.5,7.88c-2.33,4.06-3.66,6.37-4,6.95
			c-1.97,3.46-2.95,5.74-2.95,6.84c0,0.43,0.14,0.65,0.43,0.65c0.48,0,2.02-1.2,4.61-3.6c2.02-2.02,4.68-4.92,7.99-8.71
			c0.14-0.14,0.26-0.22,0.36-0.22c0.1,0,0.14,0.1,0.14,0.29c0,0.91-0.36,1.8-1.08,2.66c-3.55,3.94-6.7,7.23-9.43,9.86
			c-1.87,1.78-3.97,3.55-6.3,5.33c-2.33,1.77-4.02,2.66-5.08,2.66c-0.72,0-1.08-0.5-1.08-1.51c0-0.58,0.43-1.82,1.3-3.74
			c0.86-1.92,1.73-3.7,2.59-5.33L74.89,123.92z"/>
		<path class="st0" d="M102.32,127.73c-0.86,2.35-2.23,4.33-4.1,5.94c-1.87,1.61-3.61,2.7-5.22,3.28c-1.61,0.58-3.06,0.86-4.36,0.86
			c-3.5,0-5.26-1.37-5.26-4.1c0-2.78,1.54-5.3,4.61-7.56c1.44-1.06,3-1.75,4.68-2.09c0.24,0,0.36,0.1,0.36,0.29
			c0,0.1-0.05,0.19-0.14,0.29c-1.2,0.91-2.34,2.33-3.42,4.25c-1.08,1.92-1.62,3.6-1.62,5.04s0.6,2.16,1.8,2.16
			c0.96,0,1.91-0.4,2.84-1.19c0.94-0.79,1.64-1.6,2.12-2.41l0.72-1.15c0.96-1.54,1.76-3.98,2.41-7.34c0.65-3.36,1.07-6.34,1.26-8.93
			l0.22-3.89c0-0.38-0.07-0.58-0.22-0.58l-0.29,0.14l-7.13,8.35c-0.53,0.62-0.89,0.94-1.08,0.94c-0.24,0-0.36-0.17-0.36-0.5
			c0-0.62,0.17-1.1,0.5-1.44l0.65-0.79c5.47-6.14,8.59-9.86,9.36-11.16c0.72-1.1,1.78-2.06,3.17-2.88c1.34-0.77,2.93-1.15,4.75-1.15
			c0.48,0,0.72,0.19,0.72,0.58c0,0.24-0.19,0.46-0.58,0.65c-0.14,0.05-0.32,0.16-0.54,0.32c-0.22,0.17-0.6,0.56-1.15,1.19
			c-0.55,0.62-1.04,1.34-1.48,2.16c-0.43,0.82-0.82,1.96-1.15,3.42c-0.34,1.46-0.5,3.08-0.5,4.86
			C103.9,120.8,103.37,124.95,102.32,127.73z"/>
		<path class="st0" d="M114.92,128.96c-5.62,5.28-9.22,7.92-10.8,7.92c-0.82,0-1.22-0.55-1.22-1.66c0-1.1,0.43-2.71,1.3-4.82
			c0.86-2.11,1.73-3.96,2.59-5.54l1.3-2.3c3.65-6.38,6.41-10.97,8.28-13.75c0.82-1.2,1.86-2.22,3.13-3.06
			c1.27-0.84,2.46-1.26,3.56-1.26c0.38,0,0.58,0.17,0.58,0.5c0,0.24-0.17,0.7-0.5,1.37c-0.58,1.06-1.99,3.58-4.25,7.56
			c-2.26,3.98-3.6,6.38-4.03,7.2c-1.97,3.46-2.95,5.76-2.95,6.91c0,0.43,0.14,0.65,0.43,0.65c0.48,0,2.02-1.2,4.61-3.6
			c2.02-2.02,4.68-4.92,7.99-8.71c0.14-0.14,0.26-0.22,0.36-0.22c0.1,0,0.14,0.1,0.14,0.29c0,0.91-0.36,1.8-1.08,2.66
			C120.8,123.03,117.65,126.32,114.92,128.96z M124.49,100.38c-1.2,0-1.8-0.72-1.8-2.16c0-1.34,0.5-2.7,1.51-4.07
			c1.01-1.37,2.11-2.05,3.31-2.05c1.44,0,2.16,0.82,2.16,2.45c0,1.34-0.55,2.65-1.66,3.92C126.92,99.74,125.74,100.38,124.49,100.38
			z"/>
		<path class="st0" d="M142.92,125.07c2.02-2.02,4.68-4.92,7.99-8.71c0.14-0.14,0.26-0.22,0.36-0.22c0.1,0,0.14,0.1,0.14,0.29
			c0,0.91-0.36,1.8-1.08,2.66c-3.55,3.94-6.7,7.23-9.43,9.86c-0.24,0.24-0.68,0.68-1.33,1.33c-0.65,0.65-1.17,1.15-1.55,1.51
			c-0.38,0.36-0.89,0.84-1.51,1.44c-0.62,0.6-1.15,1.07-1.58,1.4c-0.43,0.34-0.9,0.68-1.4,1.04s-0.96,0.62-1.37,0.79
			c-0.41,0.17-0.76,0.25-1.04,0.25c-0.86,0-1.3-0.79-1.3-2.38c0-1.73,0.37-3.94,1.12-6.62c0.74-2.69,1.5-4.94,2.27-6.77l1.08-2.74
			c0.05-0.1,0.07-0.19,0.07-0.29c0-0.1-0.05-0.14-0.14-0.14l-0.43,0.14c-1.83,1.82-3.71,3.88-5.65,6.16
			c-1.94,2.28-3.42,4.09-4.43,5.44l-1.51,2.02c-0.96,1.49-2.08,2.78-3.35,3.89s-2.24,1.66-2.92,1.66c-0.48,0-0.72-0.31-0.72-0.94
			c0-0.91,0.43-2.35,1.3-4.32c0.86-1.97,1.73-3.72,2.59-5.26l1.3-2.3l10.51-18.79c9.46-16.8,16.34-27.94,20.66-33.41
			c1.44-1.87,2.45-2.81,3.02-2.81c0.24,0,0.36,0.19,0.36,0.58c0,1.06-0.77,3.12-2.3,6.19c-7.54,13.63-12.77,23.06-15.7,28.3
			c-5.71,10.22-9.14,16.3-10.3,18.22v0.29c0,0.14,0.05,0.22,0.14,0.22c0.1,0,0.24-0.1,0.43-0.29l3.38-3.67
			c2.3-2.45,4.39-4.61,6.26-6.48s3.96-3.71,6.26-5.51c2.3-1.8,4.01-2.7,5.11-2.7c0.77,0,1.15,0.58,1.15,1.73
			c0,0.67-0.24,1.7-0.72,3.1c-0.48,1.39-0.96,2.09-1.44,2.09c-0.19,0-0.36-0.24-0.5-0.72c-0.24-1.2-0.94-1.8-2.09-1.8
			c-1.63,0-3.14,1.55-4.54,4.64c-1.39,3.1-2.38,6.1-2.95,9c-0.58,2.9-0.86,4.86-0.86,5.87c0,1.06,0.26,1.58,0.79,1.58
			c0.43,0,1-0.28,1.69-0.83c0.7-0.55,1.51-1.31,2.45-2.27C142.17,125.84,142.73,125.26,142.92,125.07z"/>
	</g>
	<g>
		<path class="st0" d="M111.47,193.54c0.79,1.09,1.18,2.47,1.17,4.13c-7.82,2.63-14.77,3.72-20.84,3.27
			c-6.08-0.45-11.73-3.01-16.96-7.68c-2.82,0.38-5.55,0.38-8.19,0.01c-2.65-0.37-5.35-1.21-8.1-2.52s-5.27-3.42-7.56-6.32
			c-2.29-2.9-4.15-6.48-5.59-10.75c-1.39-4.13-2.04-8.03-1.93-11.68c0.1-3.66,0.75-6.77,1.93-9.35c1.19-2.58,2.78-4.92,4.77-7.04
			c1.99-2.12,4.04-3.8,6.13-5.03c2.09-1.24,4.27-2.24,6.54-3c4.11-1.38,8.04-2.13,11.8-2.23c3.76-0.1,7.36,0.46,10.79,1.69
			c3.43,1.23,6.49,3.37,9.19,6.4c2.69,3.04,4.82,6.88,6.38,11.52c1.32,3.91,1.99,7.6,2.02,11.06c0.03,3.46-0.51,6.51-1.63,9.14
			s-2.52,4.91-4.21,6.83c-1.69,1.93-3.66,3.66-5.91,5.18c1.99,2.02,4.48,3.6,7.47,4.72C101.72,193.02,105.97,193.57,111.47,193.54z
			 M110.82,195.03c-3.11,0.08-5.93-0.1-8.46-0.56c-2.53-0.46-4.71-1.16-6.56-2.11c-1.84-0.95-3.31-1.83-4.42-2.65
			c-1.1-0.82-2.26-1.81-3.47-2.99c1.49-1.15,2.78-2.31,3.87-3.49c1.08-1.18,2.17-2.69,3.26-4.53c1.09-1.84,1.86-3.77,2.32-5.79
			c0.46-2.02,0.59-4.43,0.4-7.24c-0.19-2.81-0.82-5.79-1.89-8.97c-1.32-3.91-3.03-7.23-5.14-9.97c-2.11-2.74-4.31-4.76-6.61-6.07
			c-2.29-1.3-4.75-2.2-7.36-2.68c-2.61-0.48-5.01-0.61-7.2-0.38c-2.19,0.23-4.28,0.68-6.28,1.35c-2.13,0.72-4.19,1.67-6.17,2.84
			c-1.98,1.17-3.92,2.76-5.83,4.77c-1.91,2-3.43,4.23-4.55,6.69c-1.13,2.46-1.73,5.42-1.82,8.91c-0.09,3.48,0.53,7.17,1.84,11.08
			c2.54,7.55,6.84,12.92,12.9,16.1c6.05,3.18,12.91,3.58,20.57,1.2c3.57,3.55,8.12,5.91,13.66,7.08c5.54,1.18,11.34,0.84,17.4-1
			C111.33,195.95,111.18,195.42,110.82,195.03z M79.82,188c-2.24,0.76-4.35,1.1-6.33,1.02c-1.98-0.08-3.82-0.47-5.52-1.18
			c-1.7-0.71-3.27-1.68-4.71-2.9c-1.44-1.22-2.73-2.6-3.88-4.13c-1.15-1.53-2.15-3.16-3.02-4.9c-0.87-1.74-1.59-3.46-2.17-5.17
			c-0.6-1.78-1.08-3.64-1.43-5.58s-0.54-3.88-0.55-5.81s0.2-3.81,0.62-5.66c0.42-1.85,1.09-3.56,2.02-5.13
			c0.93-1.57,2.15-2.99,3.67-4.24s3.38-2.25,5.58-2.99c2.02-0.68,3.94-0.96,5.76-0.85c1.82,0.12,3.53,0.54,5.12,1.28
			c1.6,0.74,3.08,1.72,4.47,2.96c1.38,1.24,2.64,2.64,3.77,4.18c1.13,1.55,2.13,3.21,3.01,4.98s1.62,3.54,2.22,5.32
			c0.6,1.78,1.08,3.62,1.46,5.54c0.37,1.91,0.58,3.82,0.61,5.73c0.04,1.9-0.12,3.76-0.46,5.57c-0.34,1.81-0.93,3.49-1.77,5.03
			c-0.84,1.54-1.95,2.91-3.33,4.11C83.57,186.37,81.86,187.31,79.82,188z M65.74,142.36c-1.67,0.71-3.06,1.64-4.18,2.78
			c-1.12,1.15-2.01,2.44-2.66,3.88c-0.65,1.44-1.1,2.99-1.35,4.65c-0.25,1.65-0.33,3.35-0.26,5.08c0.08,1.73,0.29,3.47,0.64,5.22
			c0.35,1.75,0.8,3.43,1.35,5.05c0.55,1.62,1.21,3.24,1.98,4.84s1.66,3.12,2.66,4.54c1,1.42,2.09,2.71,3.29,3.86
			c1.19,1.16,2.49,2.1,3.88,2.83c1.4,0.73,2.88,1.2,4.45,1.41c1.57,0.21,3.22,0.1,4.95-0.33c1.69-0.72,3.09-1.64,4.22-2.78
			c1.12-1.13,2.02-2.41,2.69-3.84s1.13-2.96,1.38-4.62c0.25-1.65,0.33-3.34,0.26-5.06c-0.07-1.72-0.29-3.45-0.64-5.2
			s-0.8-3.42-1.34-5.02c-0.55-1.62-1.21-3.23-1.98-4.84c-0.78-1.61-1.66-3.13-2.65-4.56s-2.08-2.74-3.28-3.9
			c-1.2-1.17-2.5-2.12-3.89-2.86c-1.4-0.74-2.9-1.22-4.5-1.45C69.17,141.81,67.49,141.92,65.74,142.36z"/>
		<path class="st0" d="M136.19,161.21c-1.7-5.62-3.57-11.19-5.63-16.72c-0.26-0.78-2.16-0.88-5.71-0.31
			c-0.97-1.18-1.42-2.53-1.36-4.03l14.39-4.85c0.7,0.04,1.24,0.15,1.62,0.34s0.77,0.53,1.18,1.01c0.13,0.4,0.29,1.05,0.47,1.96
			c0.18,0.9,0.36,1.61,0.53,2.12c2.24,7.38,4.38,13.75,6.43,19.09c1.77-0.03,3.56-0.3,5.37-0.81c0.93,1.15,1.41,2.56,1.43,4.23
			c-2.85,1.16-6.11,3.37-9.78,6.63c-2.48,0.64-4.53,0.51-6.14-0.38l-0.29-0.87c-2.38,2.98-5.66,5.17-9.84,6.58
			c-3.02,1.02-5.44,0.92-7.26-0.3c-1.82-1.22-3.34-3.57-4.57-7.07c-1.83-5.59-3.73-11.22-5.69-16.89c-0.26-0.78-2.17-0.88-5.74-0.29
			c-0.95-1.19-1.4-2.53-1.36-4.03l14.46-4.87c0.73,0.03,1.28,0.14,1.65,0.33c0.38,0.2,0.77,0.53,1.18,1.02
			c0.13,0.4,0.29,1.05,0.47,1.96c0.18,0.9,0.36,1.61,0.53,2.12c1.59,5.24,3.37,10.52,5.34,15.85c0.94,2.5,1.9,3.83,2.86,3.98
			C132.21,166.06,134.03,164.12,136.19,161.21z M131.93,144.03c2.08,5.73,4.03,11.53,5.86,17.39c-3.13,4.37-5.81,6.93-8.06,7.69
			c-3.04,1.03-5.24-0.46-6.59-4.47c-1.95-5.34-3.73-10.62-5.34-15.84c-0.2-0.6-0.38-1.34-0.55-2.23c-0.16-0.89-0.28-1.44-0.36-1.66
			c-0.42-0.43-0.86-0.67-1.32-0.71c-3.21,1.33-6.49,2.43-9.83,3.31c-0.01,0.57,0.17,1.09,0.53,1.57c3.7-0.63,5.83-0.15,6.42,1.44
			c1.95,5.63,3.84,11.26,5.69,16.89c0.97,3.04,2.25,5.09,3.82,6.15c1.57,1.07,3.63,1.17,6.19,0.31c3.35-1.13,6.72-4.58,10.1-10.34
			l1.64,4.86c0.3,0.3,0.78,0.45,1.46,0.47c2.78-2.25,6.63-4.42,11.56-6.53c-0.01-0.62-0.18-1.14-0.53-1.57
			c-3.87,1.13-6.85,1.63-8.92,1.48c-2.85-7.87-5.09-14.51-6.71-19.92c-0.2-0.6-0.39-1.34-0.56-2.22c-0.17-0.88-0.3-1.43-0.37-1.66
			c-0.39-0.44-0.83-0.67-1.31-0.71c-3.16,1.26-6.42,2.36-9.76,3.29c-0.01,0.57,0.17,1.09,0.53,1.57
			C129.2,141.97,131.34,142.45,131.93,144.03z"/>
		<path class="st0" d="M154.31,111.93c5.02-1.69,8.14-0.72,9.37,2.93s-0.67,6.31-5.69,8c-0.75,0.25-1.51,0.35-2.26,0.28
			c-0.75-0.07-1.46-0.27-2.11-0.6c-0.66-0.33-1.24-0.79-1.76-1.36s-0.89-1.22-1.14-1.95c-0.25-0.73-0.34-1.48-0.27-2.25
			c0.06-0.76,0.26-1.48,0.58-2.14c0.32-0.66,0.76-1.25,1.32-1.76C152.9,112.57,153.56,112.18,154.31,111.93z M180.78,152.06
			c0.82,1.26,1.27,2.6,1.36,4.03c-7.23,2.19-14.39,4.6-21.49,7.24c-0.82-1.18-1.27-2.53-1.36-4.03c3.5-1.57,5.11-2.87,4.81-3.88
			c-1.81-6.32-3.9-12.62-6.3-18.91c-1.64,0.06-3.59,0.39-5.86,1.01c-0.96-1.16-1.44-2.57-1.43-4.23c3.29-1.31,6.73-3.58,10.32-6.81
			c2.46-0.63,4.49-0.51,6.09,0.36c3.59,10.96,6.47,19.2,8.63,24.73C175.97,152.53,177.71,152.7,180.78,152.06z M152.12,115.56
			c-0.4,1-0.42,2.07-0.03,3.2c0.19,0.58,0.47,1.08,0.83,1.52c0.36,0.44,0.77,0.78,1.22,1.04c0.46,0.25,0.94,0.41,1.44,0.48
			c0.51,0.07,1,0.02,1.49-0.15c0.47-0.16,0.88-0.42,1.26-0.78c0.37-0.36,0.66-0.78,0.87-1.26c0.21-0.48,0.33-1,0.36-1.57
			c0.03-0.57-0.05-1.14-0.24-1.72c-0.19-0.58-0.47-1.08-0.84-1.51c-0.37-0.43-0.78-0.78-1.24-1.03c-0.46-0.25-0.94-0.41-1.46-0.47
			c-0.52-0.06-1.01-0.01-1.47,0.14s-0.89,0.41-1.26,0.76C152.67,114.56,152.36,115.01,152.12,115.56z M179.96,153.7
			c-5.45,1.29-8.47,1.12-9.07-0.5c-2.47-6.59-5.31-14.74-8.54-24.46c-0.3-0.29-0.78-0.45-1.46-0.47c-2.6,2.48-5.5,4.48-8.71,5.98
			c0.04,0.58,0.22,1.1,0.53,1.57c2.55-0.71,4.62-0.9,6.19-0.56c2.99,8.22,5.19,14.81,6.59,19.78c0.51,1.66-1.02,3.36-4.59,5.11
			c-0.04,0.63,0.15,1.17,0.55,1.63c6.33-2.28,12.68-4.42,19.06-6.42C180.55,154.73,180.37,154.18,179.96,153.7z"/>
		<path class="st0" d="M183.21,132.73c-0.45,0.15-1.13,0.2-2.07,0.14c-0.93-0.06-1.58-0.18-1.95-0.38l-0.62-11.1
			c8.14-2.27,16.49-5.06,25.04-8.36c1.28,0.63,2.1,1.49,2.46,2.58l-7.84,29.46l2.4-0.81c1.27-0.43,2.32-0.97,3.16-1.62
			c0.84-0.65,1.52-1.54,2.04-2.65c0.52-1.11,0.9-2.13,1.14-3.06c0.25-0.92,0.54-2.3,0.89-4.12c1.13-0.38,2.38-0.48,3.76-0.3
			l1.72,13.48c-8.41,2.64-13.03,4.09-13.85,4.37c-6.06,2.04-9.84,3.39-11.33,4.04c-1.13-0.21-2.14-0.99-3.01-2.33l8.08-30.21
			c-2.33,0.93-4.51,2.36-6.52,4.27C184.7,128.04,183.54,130.24,183.21,132.73z M180.05,122.47l0.51,9.1
			c0.42,0.21,0.86,0.23,1.32,0.07l1.2-7.23c1.78-1.04,4.4-2.15,7.86-3.32l4.43-1.49l-8.62,32.21c0.42,0.58,0.87,0.93,1.36,1.06
			c3.82-1.43,7.77-2.84,11.86-4.22c1.38-0.46,2.55-0.95,3.52-1.45c0.97-0.5,2.09-1.3,3.37-2.4s2.21-2.58,2.82-4.46
			c0.61-1.87,0.82-4.07,0.64-6.58c-0.41-0.06-0.83-0.02-1.26,0.13c-0.35,1.82-0.65,3.19-0.9,4.09c-0.25,0.9-0.66,1.93-1.22,3.08
			c-0.56,1.15-1.32,2.08-2.26,2.76c-0.94,0.69-2.14,1.28-3.58,1.76l-8.33,2.81l8.46-31.71c-0.13-0.4-0.47-0.74-1.02-1.03
			c-2.92,1.18-6.19,2.38-9.8,3.6C186.8,120.5,183.36,121.56,180.05,122.47z"/>
	</g>
	<g>
		<path class="st0" d="M0,78.25l7.58-18.89l2.23,0.89L3.19,76.74l11.76,4.72l6.21-15.46l2.23,0.89l-6.21,15.46l14.96,6.01
			l-0.96,2.41L0,78.25z"/>
		<path class="st0" d="M32.6,61.12l6.33,10.64l-1.66,2.05L18.95,43.06l1.94-2.38l34.19,11.19l-1.79,2.2l-11.77-3.93L32.6,61.12z
			 M39.11,49.29C29,45.9,24.07,44.37,21.89,43.47l-0.03,0.04c1.46,2.24,4.72,7.66,9.45,15.4L39.11,49.29z"/>
		<path class="st0" d="M75.95,22.7c-3-5.85-5.82-11.47-7.22-14.52L68.6,8.24c0.86,4.63,2.34,22.47,3.38,33.86l-2.26,1.16
			c-6.6-5.84-21.28-19.02-24.97-22.85l-0.08,0.04c1.96,3.31,5.62,10.23,8.24,15.35l6.52,12.73l-2.31,1.18L41.8,19.81l3.46-1.77
			c9.35,8.15,21.39,18.92,24.23,21.72l0.08-0.04c-0.43-2.53-2.09-20.5-3-32.6l3.42-1.75l15.32,29.9L83,36.45L75.95,22.7z"/>
		<path class="st0" d="M90.26,1.53l5.37,33.17l-2.56,0.41L87.7,1.94L90.26,1.53z"/>
		<path class="st0" d="M105.84,0l2.59,0.17L106.4,31.3l18.01,1.17l-0.63,2.36l-20.12-1.31L105.84,0z"/>
		<path class="st0" d="M138.31,30.48c-2.39,7.09-6.22,8.08-10.45,6.66c-1.36-0.46-1.91-0.79-2.64-1.19l0.75-2.23
			c0.59,0.35,1.7,0.83,2.74,1.18c4.28,1.44,5.94-1.7,7.15-5.29l7.78-23.11l2.46,0.83L138.31,30.48z"/>
		<path class="st0" d="M167.68,38.77l-14.3-9.44l-7.78,11.77l15.66,10.34l-1.64,1.79l-17.5-11.56l18.52-28.03l17.18,11.35l-1.32,2
			l-15.02-9.92l-6.77,10.25l14.3,9.45L167.68,38.77z"/>
		<path class="st0" d="M162.86,56.01l27.3-19.58l2.24,3.12c-3.5,8.95-11.59,29.87-13.32,33.72l0.03,0.04
			c3.77-3.06,7.82-5.9,12.26-9.09l12.36-8.87l1.54,2.15l-27.3,19.58l-2.07-2.89c3.41-8.59,12.01-30.11,13.61-34.22l-0.03-0.04
			c-3.45,2.77-7.46,5.58-12.41,9.14l-12.67,9.09L162.86,56.01z"/>
		<path class="st0" d="M188.96,81.29c-4.07,2.09-5.88,5.64-4.5,10.98c1.54,5.95,5.1,7.45,8.63,6.54c3.67-0.95,5.53-3.17,5.44-10.78
			c-0.06-7.32,1.4-10.87,6.1-12.09c4.27-1.11,9.08,0.97,10.88,7.94c1.85,7.16-1.73,11.31-5.58,12.75l-0.67-2.6
			c3.29-1.65,5.21-4.57,3.89-9.68c-1.21-4.69-4.06-6.68-7.68-5.75c-3.58,0.93-4.42,3.42-4.36,9.8c0.09,9.74-3.23,12.04-7.13,13.05
			c-4.79,1.24-9.82-1.18-11.77-8.71c-2.1-8.13,1.87-12.33,6.08-14.07L188.96,81.29z"/>
	</g>
</g>
<g id="Lager_2" class="st1">
	<text transform="matrix(1 0 0 1 444.2881 135.9431)" class="st2" style="font-family:'AguafinaScript-Regular'; font-size:72px;">Musik</text>
	
		<text transform="matrix(0.9477 -0.3193 0.3193 0.9477 478.6137 199.2568)" class="st2" style="font-family:'JacquesFrancoisShadow-Regular'; font-size:72px;">Quiz</text>
	<g class="st2">
		<g>
			<path d="M428.8,78.25l7.58-18.89l2.23,0.89L432,76.74l11.76,4.72l6.21-15.46l2.23,0.89l-6.21,15.46l14.97,6.01l-0.97,2.41
				L428.8,78.25z"/>
			<path d="M463.05,58.65l5.84,10.91l-1.75,1.97l-16.91-31.54l2.04-2.29l33.65,12.72l-1.88,2.12l-11.58-4.46L463.05,58.65z
				 M470.09,47.12c-9.95-3.84-14.81-5.59-16.94-6.59l-0.03,0.04c1.36,2.3,4.37,7.87,8.74,15.81L470.09,47.12z"/>
			<path d="M507.53,21.79c-2.81-5.94-5.46-11.65-6.77-14.74l-0.13,0.06c0.72,4.65,1.64,22.54,2.32,33.95l-2.3,1.09
				c-6.42-6.04-20.68-19.68-24.25-23.62l-0.08,0.04c1.86,3.37,5.29,10.4,7.76,15.6l6.12,12.93l-2.34,1.11l-14.38-30.36l3.51-1.67
				c9.1,8.44,20.8,19.57,23.55,22.46l0.09-0.04c-0.35-2.54-1.45-20.56-1.99-32.68l3.47-1.64l14.38,30.36l-2.34,1.11L507.53,21.79z"
				/>
			<path d="M521.88,1.15l4.52,33.29l-2.57,0.35L519.32,1.5L521.88,1.15z"/>
			<path d="M536.87,0l2.58,0.22l-2.64,31.09l17.98,1.53l-0.68,2.35l-20.09-1.71L536.87,0z"/>
			<path d="M567.7,30.71c-2.44,7.08-6.28,8.04-10.5,6.59c-1.36-0.47-1.9-0.81-2.63-1.21l0.77-2.22c0.59,0.36,1.69,0.84,2.74,1.2
				c4.27,1.47,5.95-1.66,7.19-5.24l7.95-23.05l2.45,0.85L567.7,30.71z"/>
			<path d="M597,39.2l-14.23-9.55l-7.86,11.72l15.59,10.46l-1.66,1.78l-17.42-11.69l18.72-27.9l17.1,11.47l-1.34,1.99l-14.95-10.03
				l-6.85,10.2l14.23,9.55L597,39.2z"/>
			<path d="M592.05,56.4L619.49,37l2.22,3.14c-3.57,8.93-11.8,29.79-13.56,33.63l0.03,0.04c3.79-3.03,7.86-5.85,12.33-9.01
				l12.42-8.78l1.52,2.16l-27.44,19.4l-2.05-2.9c3.47-8.57,12.21-30.03,13.85-34.13l-0.03-0.04c-3.47,2.75-7.49,5.53-12.47,9.05
				l-12.74,9L592.05,56.4z"/>
			<path d="M617.97,81.88c-4.08,2.07-5.92,5.59-4.57,10.95c1.5,5.96,5.05,7.49,8.59,6.6c3.68-0.92,5.55-3.13,5.52-10.74
				c-0.01-7.32,1.48-10.86,6.18-12.04c4.28-1.08,9.07,1.04,10.82,8.02c1.8,7.17-1.81,11.29-5.67,12.71l-0.66-2.61
				c3.3-1.62,5.25-4.54,3.96-9.66c-1.18-4.7-4.01-6.71-7.64-5.8c-3.58,0.9-4.44,3.39-4.42,9.77c0.02,9.74-3.32,12.02-7.23,13
				c-4.79,1.2-9.82-1.25-11.71-8.79c-2.05-8.15,1.95-12.32,6.18-14.02L617.97,81.88z"/>
		</g>
	</g>
</g>
</svg>
